<?xml version="1.0" encoding="UTF-8" standalone="no"?>
<svg
   xmlns:dc="http://purl.org/dc/elements/1.1/"
   xmlns:cc="http://creativecommons.org/ns#"
   xmlns:rdf="http://www.w3.org/1999/02/22-rdf-syntax-ns#"
   xmlns:svg="http://www.w3.org/2000/svg"
   xmlns="http://www.w3.org/2000/svg"
   viewBox="0 0 302.94666 97.946671"
   height="97.946671"
   width="302.94666"
   xml:space="preserve"
   id="svg2"
   version="1.1"><metadata
     id="metadata8"><rdf:RDF><cc:Work
         rdf:about=""><dc:format>image/svg+xml</dc:format><dc:type
           rdf:resource="http://purl.org/dc/dcmitype/StillImage" /></cc:Work></rdf:RDF></metadata><defs
     id="defs6" /><g
     transform="matrix(1.3333333,0,0,-1.3333333,0,97.946667)"
     id="g10"><g
       transform="scale(0.1)"
       id="g12"><path
         id="path14"
         style="fill:#ffffff;fill-opacity:1;fill-rule:nonzero;stroke:none"
         d="m 529.707,559.652 c -4.883,2.649 -7.93,7.766 -7.93,13.34 V 703.16 c 0,5.547 3.047,10.656 7.93,13.313 4.914,2.683 10.879,2.429 15.539,-0.633 l 99.539,-65.086 c 4.297,-2.75 6.836,-7.551 6.836,-12.668 0,-5.137 -2.598,-9.856 -6.836,-12.699 l -99.539,-65.059 c -2.531,-1.652 -5.402,-2.5 -8.332,-2.5 -2.461,0 -4.961,0.606 -7.207,1.824" /><path
         id="path16"
         style="fill:#ffffff;fill-opacity:1;fill-rule:nonzero;stroke:none"
         d="m 0.253906,162.793 c -1.484376,8.047 3.652344,15.781 11.601594,17.52 l 91.1715,20.371 c 3.938,0.906 8.125,0.136 11.524,-2.032 3.437,-2.234 5.781,-5.703 6.621,-9.66 10.656,-46.57 35.801,-70.594 80.246,-71.355 41.758,0.586 61.18,15.871 74.969,40.886 13.429,25.286 17.648,62.344 17.539,100.129 v 460.825 c 0,3.984 1.633,7.882 4.472,10.695 2.813,2.836 6.7,4.437 10.704,4.437 h 93.125 c 3.984,0 7.902,-1.601 10.742,-4.437 2.793,-2.813 4.433,-6.711 4.433,-10.695 V 228.594 C 417.656,138.691 384.336,79.6484 339.883,45.1836 295.586,10.6719 242.316,0.0664063 201.418,0.0390625 200.449,0 199.484,0 198.516,0 97.8125,0 18.7695,56.3086 0.253906,162.793" /><path
         id="path18"
         style="fill:#ffffff;fill-opacity:1;fill-rule:nonzero;stroke:none"
         d="m 934.961,17.5 c -6.172,0 -11.738,3.7109 -14.023,9.4336 L 733.691,486.754 c -1.953,4.695 -1.386,9.969 1.426,14.168 2.852,4.183 7.539,6.668 12.598,6.668 h 100.937 c 6.172,0 11.836,-3.781 14.102,-9.606 L 986.035,182.734 1104.1,497.77 c 2.21,5.957 7.85,9.82 14.2,9.82 h 93.15 c 5.02,0 9.69,-2.445 12.5,-6.613 2.83,-4.122 3.44,-9.411 1.6,-14.067 L 1045.1,27.0898 C 1042.77,21.3281 1037.23,17.5 1031,17.5 h -96.039" /><path
         id="path20"
         style="fill:#ffffff;fill-opacity:1;fill-rule:nonzero;stroke:none"
         d="m 1498.21,117.637 c 85.02,0.789 135.12,58.066 136.15,144.902 -1.03,86.856 -51.13,144.133 -136.15,144.93 -85.08,-0.797 -135.16,-58.074 -136.15,-144.93 0.99,-86.836 51.07,-144.113 136.15,-144.902 m 0,401.625 c 144.92,-0.25 259.34,-114.489 259.65,-256.723 C 1757.55,120.32 1643.13,6.07422 1498.21,5.83984 1353.23,6.07422 1238.82,120.32 1238.56,262.539 c 0.26,142.234 114.67,256.473 259.65,256.723" /><path
         id="path22"
         style="fill:#ffffff;fill-opacity:1;fill-rule:nonzero;stroke:none"
         d="m 2144.44,17.4805 c -4.94,0 -9.59,2.4218 -12.42,6.4453 L 2008.6,199.355 1885.18,23.9258 c -2.83,-4.0235 -7.48,-6.4453 -12.36,-6.4453 h -107.7 c -5.76,0 -11.01,3.2617 -13.57,8.3789 -2.58,5.1758 -1.99,11.3672 1.48,15.957 l 179.32,236.2496 -156.02,205.211 c -3.49,4.575 -4.04,10.774 -1.5,15.961 2.54,5.125 7.85,8.367 13.57,8.367 h 112.56 c 5.02,0 9.63,-2.46 12.46,-6.593 l 98.93,-144.547 97.21,144.457 c 2.77,4.152 7.54,6.683 12.59,6.683 h 105.73 c 5.72,0 10.94,-3.207 13.51,-8.308 2.56,-5.074 2.05,-11.234 -1.31,-15.82 L 2089.58,278.242 2269.03,41.8164 c 3.48,-4.5898 4.1,-10.7812 1.48,-15.918 -2.52,-5.1562 -7.79,-8.4179 -13.57,-8.4179 h -112.5" /><path
         id="path24"
         style="fill:#ffffff;fill-opacity:1;fill-rule:nonzero;stroke:none"
         d="m 543.066,17.4805 c -4.023,0 -7.89,1.582 -10.761,4.4336 -2.793,2.8203 -4.434,6.7187 -4.434,10.7031 V 432.977 c 0,4.961 2.461,9.66 6.543,12.461 l 86.25,59.523 c 2.539,1.719 5.488,2.68 8.613,2.68 h 1.114 c 3.984,0 7.89,-1.668 10.734,-4.469 2.781,-2.813 4.422,-6.711 4.422,-10.695 V 32.6172 c 0,-3.9844 -1.641,-7.8828 -4.422,-10.7031 -2.844,-2.8516 -6.75,-4.4336 -10.734,-4.4336 h -87.325" /></g></g></svg>